<svg width="32" height="32" viewBox="0 0 32 32" fill="none" xmlns="http://www.w3.org/2000/svg">
<path fill-rule="evenodd" clip-rule="evenodd" d="M0.28305 31.717C-0.0943499 31.3396 -0.0943499 30.7277 0.28305 30.3503L28.6333 2H17C16.4477 2 16 1.55229 16 1C16 0.447711 16.4477 2.5098e-06 17 2.5098e-06H31C31.0055 2.5098e-06 31.0109 4.82862e-05 31.0164 0.000139839H31.0171C31.2699 -0.00414788 31.5241 0.0901667 31.7169 0.283053C31.9099 0.475985 32.0042 0.730197 31.9999 0.98305V0.983462C32 0.98897 32 0.994479 32 1V15C32 15.5523 31.5523 16 31 16C30.4477 16 30 15.5523 30 15V3.3667L1.64974 31.717C1.27234 32.0943 0.660453 32.0943 0.28305 31.717Z" fill="white"/>
</svg>
