<svg width="24" height="24" viewBox="0 0 24 24" fill="none" xmlns="http://www.w3.org/2000/svg">
<path fill-rule="evenodd" clip-rule="evenodd" d="M0.28543 23.7146C-0.0951433 23.334 -0.0951433 22.717 0.28543 22.3364L20.6218 2H13C12.4477 2 12 1.55229 12 1C12 0.447711 12.4477 2.76002e-06 13 2.76002e-06H23C23.004 2.76002e-06 23.008 3.32776e-05 23.012 7.9054e-05H23.013C23.2665 -0.00314055 23.5211 0.0919828 23.7146 0.285434C23.9081 0.4789 24.0032 0.733508 23.9999 0.987079C24 0.991382 24 0.995685 24 1V11C24 11.5523 23.5523 12 23 12C22.4477 12 22 11.5523 22 11V3.37819L1.66362 23.7146C1.28304 24.0951 0.666007 24.0951 0.28543 23.7146Z" fill="white"/>
</svg>
