<svg width="64" height="64" viewBox="0 0 64 64" fill="none" xmlns="http://www.w3.org/2000/svg">
<path fill-rule="evenodd" clip-rule="evenodd" d="M0.285576 63.7145C-0.095192 63.3337 -0.095192 62.7163 0.285576 62.3356L60.6211 2H33C32.4477 2 32 1.55229 32 1C32 0.447718 32.4477 1.99412e-06 33 1.99412e-06H63C63.0041 1.99412e-06 63.0083 2.48823e-05 63.0124 7.82881e-05H63.0126C63.2662 -0.00312606 63.5209 0.0920354 63.7144 0.285578C63.9079 0.479082 64.0031 0.733698 63.9999 0.987307C64 0.991533 64 0.995768 64 1V31C64 31.5523 63.5523 32 63 32C62.4477 32 62 31.5523 62 31V3.37889L1.66447 63.7145C1.2837 64.0952 0.666344 64.0952 0.285576 63.7145Z" fill="white"/>
</svg>
