<svg width="20" height="20" viewBox="0 0 20 20" fill="none" xmlns="http://www.w3.org/2000/svg">
<path fill-rule="evenodd" clip-rule="evenodd" d="M0.287361 19.7126C-0.095787 19.3295 -0.095787 18.7083 0.287361 18.3251L16.6125 2H11C10.4477 2 10 1.55229 10 1C10 0.447708 10.4477 0 11 0H19C19.0032 0 19.0063 1.52588e-05 19.0095 4.57764e-05C19.2637 -0.00236511 19.5187 0.093399 19.7126 0.287369C19.9061 0.480865 20.0019 0.735107 20 0.988724C20 0.992477 20 0.996231 20 1V9C20 9.55229 19.5523 10 19 10C18.4477 10 18 9.55229 18 9V3.38751L1.67488 19.7126C1.29173 20.0958 0.670517 20.0958 0.287361 19.7126Z" fill="white"/>
</svg>
