<svg viewBox="0 0 160 160" fill="none" preserveAspectRatio="xMinYMin meet" xmlns="http://www.w3.org/2000/svg">
<path d="M28 1C28 0.447715 28.4477 0 29 0H159C159.552 0 160 0.447715 160 1C160 1.55228 159.552 2 159 2H29C28.4477 2 28 1.55228 28 1Z" fill="#D9D9D9"/>
<path d="M159 132C158.448 132 158 131.261 158 130.35L158 1.65C158 0.738729 158.448 3.98329e-08 159 0C159.552 -3.98329e-08 160 0.73873 160 1.65L160 130.35C160 131.261 159.552 132 159 132Z" fill="#D9D9D9"/>
<path d="M0.292392 159.708C-0.097464 159.318 -0.097464 158.686 0.292392 158.296L158.296 0.292392C158.686 -0.0974643 159.318 -0.0974637 159.708 0.292392C160.097 0.682248 160.097 1.31433 159.708 1.70419L1.70418 159.708C1.31433 160.097 0.682248 160.097 0.292392 159.708Z" fill="#D9D9D9"/>
</svg>
