<svg viewBox="0 0 22 19" fill="none" preserveAspectRatio="xMinYMin meet" xmlns="http://www.w3.org/2000/svg">
<path d="M11.4583 18.3333C10.6989 18.3333 10.0833 17.7177 10.0833 16.9583V13.355C10.0833 12.5956 10.6989 11.98 11.4583 11.98C12.2177 11.98 12.8333 12.5956 12.8333 13.355V13.8555H20.6988C21.4175 13.8555 22 14.438 22 15.1567C22 15.8753 21.4175 16.4578 20.6988 16.4578H12.8333V16.9583C12.8333 17.7177 12.2177 18.3333 11.4583 18.3333ZM1.30115 16.4578C0.582545 16.4578 0 15.8753 0 15.1567C0 14.438 0.582545 13.8555 1.30115 13.8555H6.94885C7.66746 13.8555 8.25 14.438 8.25 15.1567C8.25 15.8753 7.66746 16.4578 6.94885 16.4578H1.30115ZM6.875 12.3316C6.11561 12.3316 5.5 11.716 5.5 10.9566V10.4561H1.28943C0.577297 10.4561 0 9.8788 0 9.16667C0 8.45454 0.577297 7.87724 1.28943 7.87724H5.5V7.37671C5.5 6.61731 6.11561 6.00171 6.875 6.00171C7.63439 6.00171 8.25 6.61731 8.25 7.37671V10.9566C8.25 11.716 7.63439 12.3316 6.875 12.3316ZM11.3728 10.4561C10.6606 10.4561 10.0833 9.8788 10.0833 9.16667C10.0833 8.45454 10.6606 7.87724 11.3728 7.87724H20.7106C21.4227 7.87724 22 8.45454 22 9.16667C22 9.8788 21.4227 10.4561 20.7106 10.4561H11.3728ZM15.125 6.35337C14.3656 6.35337 13.75 5.73776 13.75 4.97837V1.375C13.75 0.61561 14.3656 0 15.125 0C15.8844 0 16.5 0.615609 16.5 1.375V1.87553H20.6988C21.4175 1.87553 22 2.45808 22 3.17668C22 3.89529 21.4175 4.47784 20.6988 4.47784H16.5V4.97837C16.5 5.73776 15.8844 6.35337 15.125 6.35337ZM1.30115 4.47784C0.582546 4.47784 0 3.89529 0 3.17668C0 2.45808 0.582545 1.87553 1.30115 1.87553H10.6155C11.3341 1.87553 11.9167 2.45808 11.9167 3.17668C11.9167 3.89529 11.3341 4.47784 10.6155 4.47784H1.30115Z" />
</svg>
