<svg viewBox="0 0 24 24" fill="none" preserveAspectRatio="xMinYMin meet" xmlns="http://www.w3.org/2000/svg">
<path d="M18 12C18 15.3137 15.3137 18 12 18C8.68629 18 6 15.3137 6 12C6 8.68629 8.68629 6 12 6C15.3137 6 18 8.68629 18 12Z" />
<path d="M11 1C11 0.447715 11.4477 0 12 0C12.5523 0 13 0.447715 13 1V3C13 3.55228 12.5523 4 12 4C11.4477 4 11 3.55228 11 3V1Z" />
<path d="M11 21C11 20.4477 11.4477 20 12 20C12.5523 20 13 20.4477 13 21V23C13 23.5523 12.5523 24 12 24C11.4477 24 11 23.5523 11 23V21Z" />
<path d="M1 13C0.447715 13 -6.58593e-09 12.5523 0 12C6.58593e-09 11.4477 0.447715 11 1 11H3C3.55228 11 4 11.4477 4 12C4 12.5523 3.55228 13 3 13H1Z" />
<path d="M21 13C20.4477 13 20 12.5523 20 12C20 11.4477 20.4477 11 21 11H23C23.5523 11 24 11.4477 24 12C24 12.5523 23.5523 13 23 13H21Z" />
<path d="M3.51471 4.9289C3.12418 4.53838 3.12418 3.90522 3.51471 3.51469C3.90523 3.12417 4.5384 3.12417 4.92892 3.51469L6.34314 4.9289C6.73366 5.31943 6.73366 5.95259 6.34314 6.34312C5.95261 6.73364 5.31945 6.73364 4.92892 6.34312L3.51471 4.9289Z" />
<path d="M17.6569 19.0711C17.2663 18.6806 17.2663 18.0474 17.6569 17.6569C18.0474 17.2663 18.6805 17.2663 19.0711 17.6569L20.4853 19.0711C20.8758 19.4616 20.8758 20.0948 20.4853 20.4853C20.0948 20.8758 19.4616 20.8758 19.0711 20.4853L17.6569 19.0711Z" />
<path d="M4.92889 20.4852C4.53837 20.8758 3.9052 20.8758 3.51468 20.4852C3.12416 20.0947 3.12416 19.4615 3.51468 19.071L4.92889 17.6568C5.31942 17.2663 5.95258 17.2663 6.34311 17.6568C6.73363 18.0473 6.73363 18.6805 6.34311 19.071L4.92889 20.4852Z" />
<path d="M19.0711 6.34308C18.6806 6.73361 18.0474 6.73361 17.6569 6.34308C17.2663 5.95256 17.2663 5.31939 17.6569 4.92887L19.0711 3.51466C19.4616 3.12413 20.0948 3.12413 20.4853 3.51466C20.8758 3.90518 20.8758 4.53835 20.4853 4.92887L19.0711 6.34308Z" />
</svg>
