<svg width="18" height="18" viewBox="0 0 18 18" fill="none" preserveAspectRatio="xMinYMin meet" xmlns="http://www.w3.org/2000/svg">
<path d="M7.58586 9.00001L1.00008 2.41423C0.609551 2.0237 0.609552 1.39054 1.00008 1.00001V1.00001C1.3906 0.60949 2.02377 0.60949 2.41429 1.00001L9.00008 7.5858L15.5859 1.00001C15.9764 0.609489 16.6096 0.609491 17.0001 1.00002V1.00002C17.3906 1.39054 17.3906 2.0237 17.0001 2.41423L10.4143 9.00002L17.0001 15.5858C17.3906 15.9763 17.3906 16.6095 17.0001 17V17C16.6096 17.3905 15.9764 17.3905 15.5859 17L9.00008 10.4142L2.41429 17C2.02376 17.3905 1.3906 17.3905 1.00008 17V17C0.609551 16.6095 0.609551 15.9763 1.00008 15.5858L7.58586 9.00001Z" fill="white"/>
</svg>
