<svg width="16" height="16" viewBox="0 0 16 16" fill="none" xmlns="http://www.w3.org/2000/svg">
<path d="M2 2V14H14V12C14 11.4477 14.4477 11 15 11C15.5523 11 16 11.4477 16 12V14C16 15.1046 15.1046 16 14 16H2C0.895431 16 0 15.1046 0 14V2C0 0.895431 0.895431 0 2 0H4C4.55228 0 5 0.447715 5 1C5 1.55228 4.55228 2 4 2H2Z" fill="white"/>
<path d="M16 2C16 0.895431 15.1046 0 14 0H8C7.44772 0 7 0.447715 7 1C7 1.55228 7.44772 2 8 2H14V8C14 8.55229 14.4477 9 15 9C15.5523 9 16 8.55229 16 8V2Z" fill="white"/>
<path d="M13.2785 1.29537C13.6723 0.901544 14.3108 0.901544 14.7046 1.29537C15.0985 1.68919 15.0985 2.3277 14.7046 2.72153L7.72152 9.70463C7.3277 10.0985 6.68919 10.0985 6.29537 9.70463C5.90154 9.31081 5.90154 8.6723 6.29537 8.27847L13.2785 1.29537Z" fill="white"/>
</svg>
