<svg width="16" height="16" viewBox="0 0 16 16" fill="none" xmlns="http://www.w3.org/2000/svg">
<path d="M0.302821 15.6972C-0.10094 15.2934 -0.10094 14.6388 0.302821 14.235L14.235 0.30282C14.6388 -0.100941 15.2934 -0.10094 15.6972 0.302821C16.1009 0.706582 16.1009 1.36121 15.6972 1.76497L1.76497 15.6972C1.36121 16.1009 0.706582 16.1009 0.302821 15.6972Z" fill="white"/>
<path d="M14 1C14 0.447715 14.4477 0 15 0C15.5523 0 16 0.447715 16 1V7C16 7.55228 15.5523 8 15 8C14.4477 8 14 7.55228 14 7V1Z" fill="white"/>
<path d="M15 6.11959e-07C15.5523 6.36101e-07 16 0.447716 16 1C16 1.55229 15.5523 2 15 2L9 2C8.44772 2 8 1.55228 8 1C8 0.447715 8.44772 -2.41411e-08 9 0L15 6.11959e-07Z" fill="white"/>
</svg>
