<svg width="31" height="31" viewBox="0 0 31 31" fill="none" xmlns="http://www.w3.org/2000/svg">
<g clip-path="url(#clip0_214_113)">
<path fill-rule="evenodd" clip-rule="evenodd" d="M15.4538 0C6.90825 0 0 7.10417 0 15.893C0 22.9184 4.42636 28.8652 10.5669 30.97C11.3346 31.1282 11.6158 30.628 11.6158 30.2072C11.6158 29.8388 11.5905 28.5759 11.5905 27.26C7.29164 28.2074 6.39644 25.3654 6.39644 25.3654C5.70558 23.5235 4.68195 23.0501 4.68195 23.0501C3.27493 22.0765 4.78444 22.0765 4.78444 22.0765C6.34519 22.1818 7.16416 23.7079 7.16416 23.7079C8.54556 26.1285 10.7715 25.4445 11.6671 25.0235C11.7949 23.9972 12.2045 23.2868 12.6395 22.8922C9.2108 22.5238 5.60341 21.1556 5.60341 15.0508C5.60341 13.3142 6.21708 11.8933 7.18947 10.7883C7.03605 10.3937 6.49861 8.76202 7.3432 6.57814C7.3432 6.57814 8.64805 6.15705 11.5902 8.20951C12.8498 7.86162 14.1489 7.68465 15.4538 7.68316C16.7587 7.68316 18.0888 7.86754 19.3171 8.20951C22.2596 6.15705 23.5644 6.57814 23.5644 6.57814C24.409 8.76202 23.8713 10.3937 23.7178 10.7883C24.7159 11.8933 25.3042 13.3142 25.3042 15.0508C25.3042 21.1556 21.6968 22.4973 18.2425 22.8922C18.8056 23.3921 19.2915 24.3392 19.2915 25.8391C19.2915 27.9704 19.2662 29.6809 19.2662 30.2069C19.2662 30.628 19.5477 31.1282 20.3151 30.9703C26.4557 28.8649 30.882 22.9184 30.882 15.893C30.9073 7.10417 23.9738 0 15.4538 0Z" fill="white"/>
</g>
<defs>
<clipPath id="clip0_214_113">
<rect width="31" height="31" fill="white"/>
</clipPath>
</defs>
</svg>
