<svg width="31" height="32" viewBox="0 0 31 32" fill="none" xmlns="http://www.w3.org/2000/svg">
<path fill-rule="evenodd" clip-rule="evenodd" d="M19.8703 0.0727471L1.9487 1.38047C0.5031 1.5042 0 2.43752 0 3.55644V22.9674C0 23.8389 0.313088 24.5845 1.06882 25.5807L5.28147 30.9929C5.9735 31.8644 6.60291 32.051 7.92436 31.9892L28.7361 30.7444C30.4958 30.6207 31 29.8111 31 28.4426V6.60494C31 5.89775 30.7171 5.69402 29.8848 5.09029C29.8369 5.0562 29.789 5.02207 29.7412 4.98789L24.0214 1.00607C22.6373 0.0119478 22.0716 -0.113917 19.8703 0.0727471ZM8.39507 6.24761C6.69576 6.36067 6.31034 6.38627 5.34516 5.61082L2.8912 3.68231C2.64181 3.43271 2.76705 3.12125 3.39538 3.05938L20.6238 1.81566C22.0705 1.69086 22.8241 2.18899 23.3898 2.62418L26.3447 4.73936C26.471 4.80229 26.7852 5.17455 26.4073 5.17455L8.61531 6.23268L8.39507 6.24761ZM6.41398 28.2559V9.71743C6.41398 8.90784 6.66553 8.53452 7.4191 8.47158L27.854 7.28973C28.5471 7.22786 28.8602 7.66306 28.8602 8.47158V26.8863C28.8602 27.6959 28.7339 28.3807 27.6025 28.4426L8.04743 29.5625C6.916 29.6244 6.41398 29.2521 6.41398 28.2559ZM25.7175 10.7116C25.8427 11.2716 25.7175 11.8315 25.1507 11.8955L24.2082 12.0801V25.7674C23.3898 26.2026 22.6362 26.4511 22.0068 26.4511C21.0006 26.4511 20.7491 26.1396 19.9955 25.2074L13.832 15.6267V24.8959L15.7818 25.3322C15.7818 25.3322 15.7818 26.4522 14.2088 26.4522L9.87198 26.7007C9.74566 26.4511 9.87198 25.8292 10.3114 25.7055L11.4439 25.3951V13.1393L9.87198 13.0134C9.74566 12.4534 10.0598 11.6449 10.9408 11.5819L15.5939 11.2726L22.0068 20.977V12.3915L20.3723 12.2059C20.246 11.5201 20.7491 11.022 21.3774 10.9612L25.7175 10.7116Z" fill="white"/>
</svg>
