<svg viewBox="0 0 16 16" fill="none" xmlns="http://www.w3.org/2000/svg">
<path fill-rule="evenodd" clip-rule="evenodd" d="M9 1C9 0.447708 8.55228 0 8 0C7.44772 0 7 0.447708 7 1V6.28427L6.07107 5.35533C5.59728 4.88156 4.82912 4.88156 4.35534 5.35533C3.88155 5.82912 3.88155 6.59727 4.35534 7.07106L6.92893 9.64465C7.19421 9.90993 7.55175 10.0267 7.89826 9.99489C7.93171 9.99828 7.96565 10 8 10C8.03435 10 8.06829 9.99828 8.10174 9.99489C8.44825 10.0267 8.80579 9.90993 9.07107 9.64465L11.6447 7.07108C12.1184 6.59729 12.1184 5.82913 11.6447 5.35535C11.1709 4.88156 10.4027 4.88155 9.92893 5.35533L9 6.28427V1ZM1 14C0.447716 14 0 14.4477 0 15C0 15.5523 0.447716 16 1 16H15C15.5523 16 16 15.5523 16 15C16 14.4477 15.5523 14 15 14H1Z" fill="#BFBFBF"/>
</svg>
