<svg viewBox="0 0 24 24" fill="none" preserveAspectRatio="xMinYMin meet" xmlns="http://www.w3.org/2000/svg">
<path fill-rule="evenodd" clip-rule="evenodd" d="M14.9027 0.0545603L1.46153 1.03535C0.377325 1.12815 0 1.82814 0 2.66733V17.2256C0 17.8792 0.234816 18.4383 0.801612 19.1855L3.9611 23.2447C4.48012 23.8983 4.95218 24.0383 5.94327 23.9919L21.552 23.0583C22.8719 22.9655 23.25 22.3583 23.25 21.3319V4.9537C23.25 4.42331 23.0379 4.27051 22.4136 3.81772C22.3776 3.79215 22.3418 3.76655 22.3059 3.74092L18.016 0.754552C16.978 0.00896086 16.5537 -0.0854381 14.9027 0.0545603ZM6.2963 4.68571C5.02182 4.77051 4.73275 4.78971 4.00887 4.20811L2.1684 2.76173C1.98136 2.57453 2.07529 2.34093 2.54654 2.29453L15.4679 1.36175C16.5529 1.26815 17.1181 1.64174 17.5424 1.96814L19.7585 3.55452C19.8533 3.60172 20.0889 3.88092 19.8055 3.88092L6.46148 4.67451L6.2963 4.68571ZM4.81048 21.1919V7.28808C4.81048 6.68088 4.99915 6.40089 5.56432 6.35369L20.8905 5.4673C21.4103 5.4209 21.6452 5.74729 21.6452 6.35369V20.1647C21.6452 20.7719 21.5504 21.2855 20.7018 21.3319L6.03557 22.1719C5.187 22.2183 4.81048 21.9391 4.81048 21.1919ZM19.2881 8.03367C19.382 8.45366 19.2881 8.87366 18.863 8.92166L18.1561 9.06006V19.3255C17.5424 19.6519 16.9772 19.8383 16.5051 19.8383C15.7505 19.8383 15.5618 19.6047 14.9966 18.9055L10.374 11.72V18.6719L11.8363 18.9991C11.8363 18.9991 11.8363 19.8391 10.6566 19.8391L7.40398 20.0255C7.30925 19.8383 7.40398 19.3719 7.73354 19.2791L8.58292 19.0463V9.85445L7.40398 9.76005C7.30925 9.34005 7.54487 8.73366 8.2056 8.68646L11.6954 8.45446L16.5051 15.7328V9.29365L15.2792 9.15445C15.1845 8.64006 15.5618 8.26647 16.0331 8.22087L19.2881 8.03367Z" fill="#5A5A5A"/>
</svg>
